<svg xmlns="http://www.w3.org/2000/svg" width="16" height="16"  viewBox="0 0 16 16"><g transform="matrix(1 0 0 1 0 0)"  ><g style=""   ><g transform="matrix(0.67 0 0 0.67 2.67 4.33)"  ><path style="stroke: none; stroke-width: 1; stroke-dasharray: none; stroke-linecap: butt; stroke-dashoffset: 0; stroke-linejoin: miter; stroke-miterlimit: 4; fill: rgb(67,24,10); fill-rule: nonzero; opacity: 1;"  transform=" translate(-4, -6.5)" d="M 1 6.5 C 1 5.57174 1.36901 4.68177 2.02539 4.02539 C 2.68177 3.36901 3.57174 3 4.5 3 L 6 3 C 6.55228 3 7 3.44772 7 4 C 7 4.55228 6.55228 5 6 5 L 4.5 5 C 4.10218 5 3.72076 5.15815 3.43945 5.43945 C 3.15815 5.72076 3 6.10218 3 6.5 C 3 6.89782 3.15815 7.27924 3.43945 7.56055 C 3.72076 7.84185 4.10218 8 4.5 8 L 6 8 C 6.55228 8 7 8.44772 7 9 C 7 9.55228 6.55228 10 6 10 L 4.5 10 C 3.57174 10 2.68177 9.63099 2.02539 8.97461 C 1.36901 8.31823 1 7.42826 1 6.5 Z" stroke-linecap="round" /></g><g transform="matrix(0.67 0 0 0.67 13.33 4.33)"  ><path style="stroke: none; stroke-width: 1; stroke-dasharray: none; stroke-linecap: butt; stroke-dashoffset: 0; stroke-linejoin: miter; stroke-miterlimit: 4; fill: rgb(67,24,10); fill-rule: nonzero; opacity: 1;"  transform=" translate(-20, -6.5)" d="M 21 6.5 C 21 6.10218 20.8419 5.72076 20.5605 5.43945 C 20.3145 5.19337 19.9917 5.04195 19.6484 5.00781 L 19.5 5 L 18 5 C 17.4477 5 17 4.55228 17 4 C 17 3.44772 17.4477 3 18 3 L 19.5 3 L 19.6738 3.00391 C 20.5388 3.04688 21.3593 3.4101 21.9746 4.02539 C 22.631 4.68177 23 5.57174 23 6.5 C 23 7.42826 22.631 8.31823 21.9746 8.97461 C 21.3182 9.63099 20.4283 10 19.5 10 L 18 10 C 17.4477 10 17 9.55228 17 9 C 17 8.44772 17.4477 8 18 8 L 19.5 8 C 19.8978 8 20.2792 7.84185 20.5605 7.56055 C 20.8419 7.27924 21 6.89782 21 6.5 Z" stroke-linecap="round" /></g><g transform="matrix(0.67 0 0 0.67 8 14.67)"  ><path style="stroke: none; stroke-width: 1; stroke-dasharray: none; stroke-linecap: butt; stroke-dashoffset: 0; stroke-linejoin: miter; stroke-miterlimit: 4; fill: rgb(67,24,10); fill-rule: nonzero; opacity: 1;"  transform=" translate(-12, -22)" d="M 20 21 C 20.5523 21 21 21.4477 21 22 C 21 22.5523 20.5523 23 20 23 L 4 23 C 3.44772 23 3 22.5523 3 22 C 3 21.4477 3.44772 21 4 21 L 20 21 Z" stroke-linecap="round" /></g><g transform="matrix(0.67 0 0 0.67 5.67 12.22)"  ><path style="stroke: none; stroke-width: 1; stroke-dasharray: none; stroke-linecap: butt; stroke-dashoffset: 0; stroke-linejoin: miter; stroke-miterlimit: 4; fill: rgb(67,24,10); fill-rule: nonzero; opacity: 1;"  transform=" translate(-8.5, -18.33)" d="M 6 21.9998 C 6.00005 19.9681 6.98141 18.0479 8.61426 17.3006 C 8.76591 17.2306 8.88359 17.1422 8.95117 17.0653 C 9.01458 16.9931 9.00006 16.9733 9 16.9998 L 9 14.66 C 9 14.1077 9.44772 13.66 10 13.66 C 10.5523 13.66 11 14.1077 11 14.66 L 11 16.9998 C 11 18.0065 10.281 18.658 9.69043 18.994 L 9.44824 19.118 L 9.44629 19.119 C 8.7192 19.4517 8.00005 20.5117 8 21.9998 C 8 22.5521 7.55228 22.9998 7 22.9998 C 6.44772 22.9998 6 22.5521 6 21.9998 Z" stroke-linecap="round" /></g><g transform="matrix(0.67 0 0 0.67 10.33 12.22)"  ><path style="stroke: none; stroke-width: 1; stroke-dasharray: none; stroke-linecap: butt; stroke-dashoffset: 0; stroke-linejoin: miter; stroke-miterlimit: 4; fill: rgb(67,24,10); fill-rule: nonzero; opacity: 1;"  transform=" translate(-15.5, -18.33)" d="M 16 21.9998 C 15.9999 20.5117 15.2808 19.4517 14.5537 19.119 L 14.5518 19.118 C 13.9385 18.8358 13 18.1498 13 16.9998 L 13 14.66 C 13 14.1077 13.4477 13.66 14 13.66 C 14.5523 13.66 15 14.1077 15 14.66 L 15 16.9998 C 14.9999 16.9733 14.9854 16.9931 15.0488 17.0653 C 15.1164 17.1422 15.2341 17.2306 15.3857 17.3006 L 15.5371 17.3739 C 17.0793 18.1677 18 20.0315 18 21.9998 C 18 22.5521 17.5523 22.9998 17 22.9998 C 16.4477 22.9998 16 22.5521 16 21.9998 Z" stroke-linecap="round" /></g><g transform="matrix(0.67 0 0 0.67 8 5.67)"  ><path style="stroke: none; stroke-width: 1; stroke-dasharray: none; stroke-linecap: butt; stroke-dashoffset: 0; stroke-linejoin: miter; stroke-miterlimit: 4; fill: rgb(67,24,10); fill-rule: nonzero; opacity: 1;"  transform=" translate(-12, -8.5)" d="M 17 3 L 7 3 L 7 9 L 7.00586 9.24805 C 7.06719 10.4838 7.58579 11.6561 8.46484 12.5352 C 9.40253 13.4728 10.6739 14 12 14 C 13.3261 14 14.5975 13.4728 15.5352 12.5352 C 16.4728 11.5975 17 10.3261 17 9 L 17 3 Z M 19 9 C 19 10.8565 18.263 12.6374 16.9502 13.9502 C 15.6374 15.2629 13.8565 16 12 16 C 10.1435 16 8.36256 15.2629 7.0498 13.9502 C 5.819 12.7194 5.09452 11.077 5.00879 9.34668 L 5 9 L 5 2 L 5.00488 1.89746 C 5.05621 1.39333 5.48232 1 6 1 L 18 1 L 18.1025 1.00488 C 18.6067 1.05621 19 1.48232 19 2 L 19 9 Z" stroke-linecap="round" /></g></g></g></svg>