<svg xmlns="http://www.w3.org/2000/svg" width="32" height="32"  viewBox="0 0 32 32"><g transform="matrix(1 0 0 1 0 0)"  ><g style=""   ><g transform="matrix(1.33 0 0 1.33 16 11.33)"  ><path style="stroke: none; stroke-width: 1; stroke-dasharray: none; stroke-linecap: butt; stroke-dashoffset: 0; stroke-linejoin: miter; stroke-miterlimit: 4; fill: rgb(25,25,31); fill-rule: nonzero; opacity: 1;"  transform=" translate(-12, -8.5)" d="M 14 5 C 14 4.46957 13.7891 3.96101 13.4141 3.58594 C 13.0858 3.25765 12.6553 3.05515 12.1973 3.00977 L 12 3 C 11.4696 3 10.961 3.21086 10.5859 3.58594 C 10.2109 3.96101 10 4.46957 10 5 L 10 12 C 10 12.5304 10.2109 13.039 10.5859 13.4141 C 10.961 13.7891 11.4696 14 12 14 C 12.5304 14 13.039 13.7891 13.4141 13.4141 C 13.7891 13.039 14 12.5304 14 12 L 14 5 Z M 16 12 C 16 13.0609 15.5783 14.078 14.8281 14.8281 C 14.078 15.5783 13.0609 16 12 16 C 10.9391 16 9.92202 15.5783 9.17188 14.8281 C 8.42173 14.078 8 13.0609 8 12 L 8 5 C 8 3.93913 8.42173 2.92202 9.17188 2.17188 C 9.92202 1.42173 10.9391 1 12 1 L 12.1982 1.00488 C 13.1869 1.0539 14.1248 1.46859 14.8281 2.17188 C 15.5783 2.92202 16 3.93913 16 5 L 16 12 Z" stroke-linecap="round" /></g><g transform="matrix(1.33 0 0 1.33 16 19.33)"  ><path style="stroke: none; stroke-width: 1; stroke-dasharray: none; stroke-linecap: butt; stroke-dashoffset: 0; stroke-linejoin: miter; stroke-miterlimit: 4; fill: rgb(25,25,31); fill-rule: nonzero; opacity: 1;"  transform=" translate(-12, -14.5)" d="M 4 12 L 4 10 C 4 9.44772 4.44772 9 5 9 C 5.55228 9 6 9.44772 6 10 L 6 12 L 6.00781 12.2979 C 6.08146 13.7807 6.703 15.1874 7.75781 16.2422 C 8.88303 17.3674 10.4087 18 12 18 L 12.2979 17.9922 C 13.7807 17.9185 15.1874 17.297 16.2422 16.2422 C 17.297 15.1874 17.9185 13.7807 17.9922 12.2979 L 18 12 L 18 10 C 18 9.44772 18.4477 9 19 9 C 19.5523 9 20 9.44772 20 10 L 20 12 L 19.9902 12.3965 C 19.8922 14.3739 19.0638 16.2507 17.6572 17.6572 C 16.2507 19.0638 14.3739 19.8922 12.3965 19.9902 L 12 20 C 9.87827 20 7.84306 19.1575 6.34277 17.6572 C 4.9362 16.2507 4.10781 14.3739 4.00977 12.3965 L 4 12 Z" stroke-linecap="round" /></g><g transform="matrix(1.33 0 0 1.33 16 27.33)"  ><path style="stroke: none; stroke-width: 1; stroke-dasharray: none; stroke-linecap: butt; stroke-dashoffset: 0; stroke-linejoin: miter; stroke-miterlimit: 4; fill: rgb(25,25,31); fill-rule: nonzero; opacity: 1;"  transform=" translate(-12, -20.5)" d="M 11 22 L 11 19 C 11 18.4477 11.4477 18 12 18 C 12.5523 18 13 18.4477 13 19 L 13 22 C 13 22.5523 12.5523 23 12 23 C 11.4477 23 11 22.5523 11 22 Z" stroke-linecap="round" /></g></g></g></svg>