<svg xmlns="http://www.w3.org/2000/svg" width="24" height="24"  viewBox="0 0 24 24"><g transform="matrix(1 0 0 1 0 0)"  ><g style=""   ><g transform="matrix(1 0 0 1 11.5 12.5)"  ><path style="stroke: none; stroke-width: 1; stroke-dasharray: none; stroke-linecap: butt; stroke-dashoffset: 0; stroke-linejoin: miter; stroke-miterlimit: 4; fill: rgb(236,150,121); fill-rule: nonzero; opacity: 1;"  transform=" translate(-11.5, -12.5)" d="M 6.11915 3.91012 C 8.04529 2.5067 10.4092 1.83718 12.7852 2.02242 C 15.1613 2.20779 17.3938 3.23557 19.0791 4.92086 C 20.7644 6.60617 21.7922 8.83864 21.9776 11.2148 C 22.1628 13.5908 21.4933 15.9547 20.0899 17.8808 C 18.6863 19.8071 16.6409 21.169 14.3223 21.7207 C 12.1442 22.2388 9.85988 22.0095 7.83302 21.0781 L 2.3213 22.9472 C 1.96085 23.0694 1.56211 22.9761 1.29298 22.707 C 1.02387 22.4379 0.930563 22.0391 1.05275 21.6787 L 2.92091 16.166 C 1.99002 14.1394 1.76124 11.8554 2.27931 9.6777 C 2.83094 7.35903 4.19287 5.31367 6.11915 3.91012 Z M 12.6299 4.01656 C 10.7291 3.86831 8.83784 4.4036 7.29689 5.52633 C 5.75586 6.64917 4.66593 8.28565 4.22462 10.1406 C 3.78336 11.9955 4.01945 13.9471 4.88966 15.6435 C 5.01312 15.8842 5.03405 16.1647 4.94728 16.4209 L 3.59767 20.4013 L 7.57911 19.0527 L 7.67579 19.0254 C 7.90451 18.9727 8.14574 19.0022 8.35646 19.1103 C 10.0529 19.9805 12.0045 20.2166 13.8594 19.7754 C 15.7143 19.334 17.3508 18.2441 18.4736 16.7031 C 19.5964 15.1621 20.1317 13.2709 19.9834 11.3701 C 19.8351 9.46915 19.0133 7.68317 17.6651 6.33492 C 16.3168 4.98669 14.5308 4.16486 12.6299 4.01656 Z" stroke-linecap="round" /></g></g></g></svg>