<svg xmlns="http://www.w3.org/2000/svg" width="16" height="16"  viewBox="0 0 16 16"><g transform="matrix(1 0 0 1 0 0)"  ><g style=""   ><g transform="matrix(0.67 0 0 0.67 8 4)"  ><path style="stroke: none; stroke-width: 1; stroke-dasharray: none; stroke-linecap: butt; stroke-dashoffset: 0; stroke-linejoin: miter; stroke-miterlimit: 4; fill: rgb(236,150,121); fill-rule: nonzero; opacity: 1;"  transform=" translate(-12, -6)" d="M 19.5 4 C 20.2888 4 20.9145 4.15384 21.4483 4.41211 C 21.8332 4.59838 22.1476 4.82992 22.4033 5.03613 L 22.6407 5.23145 L 22.7158 5.30078 C 23.0705 5.66294 23.1001 6.24286 22.7686 6.64062 C 22.4371 7.0383 21.8616 7.11354 21.4414 6.83008 L 21.3594 6.76855 L 21.1436 6.59082 C 20.9412 6.42801 20.7732 6.30778 20.5772 6.21289 C 20.3359 6.09616 20.0112 6 19.5 6 C 19.0201 6 18.6997 6.09319 18.4483 6.21387 C 18.1756 6.34477 17.9475 6.52324 17.625 6.78125 C 17.3225 7.02323 16.9255 7.34478 16.417 7.58887 C 15.8872 7.84318 15.2701 8 14.5 8 C 13.7112 8 13.0855 7.84616 12.5518 7.58789 C 12.0383 7.33943 11.65 7.01073 11.3594 6.76855 C 11.0502 6.51087 10.8385 6.3394 10.5772 6.21289 C 10.3359 6.09616 10.0112 6 9.50003 6 C 9.02015 6 8.69969 6.09319 8.44827 6.21387 C 8.17556 6.34477 7.94754 6.52324 7.62503 6.78125 C 7.32255 7.02323 6.92555 7.34478 6.41702 7.58887 C 5.8872 7.84318 5.27013 8 4.50003 8 C 3.71124 8 3.08555 7.84616 2.55179 7.58789 C 2.16685 7.40162 1.85244 7.17008 1.59671 6.96387 L 1.3594 6.76855 L 1.28421 6.69922 C 0.929596 6.33706 0.900002 5.75714 1.23147 5.35938 C 1.56295 4.9617 2.13849 4.88646 2.55862 5.16992 L 2.64065 5.23145 L 2.85647 5.40918 C 3.05881 5.57199 3.22684 5.69222 3.42288 5.78711 C 3.66412 5.90384 3.98882 6 4.50003 6 C 4.97991 6 5.30036 5.90681 5.55179 5.78613 C 5.8245 5.65523 6.05252 5.47676 6.37503 5.21875 C 6.67751 4.97677 7.07451 4.65522 7.58304 4.41113 C 8.11286 4.15682 8.72992 4 9.50003 4 C 10.2888 4 10.9145 4.15384 11.4483 4.41211 C 11.9617 4.66057 12.35 4.98927 12.6407 5.23145 C 12.9499 5.48913 13.1615 5.6606 13.4229 5.78711 C 13.6641 5.90384 13.9888 6 14.5 6 C 14.9799 6 15.3004 5.90681 15.5518 5.78613 C 15.8245 5.65523 16.0525 5.47676 16.375 5.21875 C 16.6775 4.97677 17.0745 4.65522 17.583 4.41113 C 18.1129 4.15682 18.7299 4 19.5 4 Z" stroke-linecap="round" /></g><g transform="matrix(0.67 0 0 0.67 8 8)"  ><path style="stroke: none; stroke-width: 1; stroke-dasharray: none; stroke-linecap: butt; stroke-dashoffset: 0; stroke-linejoin: miter; stroke-miterlimit: 4; fill: rgb(236,150,121); fill-rule: nonzero; opacity: 1;"  transform=" translate(-12, -12)" d="M 19.5 10 C 20.2888 10 20.9145 10.1538 21.4483 10.4121 C 21.8332 10.5984 22.1476 10.8299 22.4033 11.0361 L 22.6407 11.2314 L 22.7158 11.3008 C 23.0705 11.6629 23.1001 12.2429 22.7686 12.6406 C 22.4371 13.0383 21.8616 13.1135 21.4414 12.8301 L 21.3594 12.7686 L 21.1436 12.5908 C 20.9412 12.428 20.7732 12.3078 20.5772 12.2129 C 20.3359 12.0962 20.0112 12 19.5 12 C 19.0201 12 18.6997 12.0932 18.4483 12.2139 C 18.1756 12.3448 17.9475 12.5232 17.625 12.7812 C 17.3225 13.0232 16.9255 13.3448 16.417 13.5889 C 15.8872 13.8432 15.2701 14 14.5 14 C 13.7112 14 13.0855 13.8462 12.5518 13.5879 C 12.0383 13.3394 11.65 13.0107 11.3594 12.7686 C 11.0502 12.5109 10.8385 12.3394 10.5772 12.2129 C 10.3359 12.0962 10.0112 12 9.50003 12 C 9.02015 12 8.69969 12.0932 8.44827 12.2139 C 8.17556 12.3448 7.94754 12.5232 7.62503 12.7812 C 7.32255 13.0232 6.92555 13.3448 6.41702 13.5889 C 5.8872 13.8432 5.27013 14 4.50003 14 C 3.71124 14 3.08555 13.8462 2.55179 13.5879 C 2.16685 13.4016 1.85244 13.1701 1.59671 12.9639 L 1.3594 12.7686 L 1.28421 12.6992 C 0.929596 12.3371 0.900002 11.7571 1.23147 11.3594 C 1.56295 10.9617 2.13849 10.8865 2.55862 11.1699 L 2.64065 11.2314 L 2.85647 11.4092 C 3.05881 11.572 3.22684 11.6922 3.42288 11.7871 C 3.66412 11.9038 3.98882 12 4.50003 12 C 4.97991 12 5.30036 11.9068 5.55179 11.7861 C 5.8245 11.6552 6.05252 11.4768 6.37503 11.2188 C 6.67751 10.9768 7.07451 10.6552 7.58304 10.4111 C 8.11286 10.1568 8.72992 10 9.50003 10 C 10.2888 10 10.9145 10.1538 11.4483 10.4121 C 11.9617 10.6606 12.35 10.9893 12.6407 11.2314 C 12.9499 11.4891 13.1615 11.6606 13.4229 11.7871 C 13.6641 11.9038 13.9888 12 14.5 12 C 14.9799 12 15.3004 11.9068 15.5518 11.7861 C 15.8245 11.6552 16.0525 11.4768 16.375 11.2188 C 16.6775 10.9768 17.0745 10.6552 17.583 10.4111 C 18.1129 10.1568 18.7299 10 19.5 10 Z" stroke-linecap="round" /></g><g transform="matrix(0.67 0 0 0.67 8 12)"  ><path style="stroke: none; stroke-width: 1; stroke-dasharray: none; stroke-linecap: butt; stroke-dashoffset: 0; stroke-linejoin: miter; stroke-miterlimit: 4; fill: rgb(236,150,121); fill-rule: nonzero; opacity: 1;"  transform=" translate(-12, -18)" d="M 19.5 16 C 20.2888 16 20.9145 16.1538 21.4483 16.4121 C 21.8332 16.5984 22.1476 16.8299 22.4033 17.0361 L 22.6407 17.2314 L 22.7158 17.3008 C 23.0705 17.6629 23.1001 18.2429 22.7686 18.6406 C 22.4371 19.0383 21.8616 19.1135 21.4414 18.8301 L 21.3594 18.7686 L 21.1436 18.5908 C 20.9412 18.428 20.7732 18.3078 20.5772 18.2129 C 20.3359 18.0962 20.0112 18 19.5 18 C 19.0201 18 18.6997 18.0932 18.4483 18.2139 C 18.1756 18.3448 17.9475 18.5232 17.625 18.7812 C 17.3225 19.0232 16.9255 19.3448 16.417 19.5889 C 15.8872 19.8432 15.2701 20 14.5 20 C 13.7112 20 13.0855 19.8462 12.5518 19.5879 C 12.0383 19.3394 11.65 19.0107 11.3594 18.7686 C 11.0502 18.5109 10.8385 18.3394 10.5772 18.2129 C 10.3359 18.0962 10.0112 18 9.50003 18 C 9.02015 18 8.69969 18.0932 8.44827 18.2139 C 8.17556 18.3448 7.94754 18.5232 7.62503 18.7812 C 7.32255 19.0232 6.92555 19.3448 6.41702 19.5889 C 5.8872 19.8432 5.27013 20 4.50003 20 C 3.71124 20 3.08555 19.8462 2.55179 19.5879 C 2.16685 19.4016 1.85244 19.1701 1.59671 18.9639 L 1.3594 18.7686 L 1.28421 18.6992 C 0.929596 18.3371 0.900002 17.7571 1.23147 17.3594 C 1.56295 16.9617 2.13849 16.8865 2.55862 17.1699 L 2.64065 17.2314 L 2.85647 17.4092 C 3.05881 17.572 3.22684 17.6922 3.42288 17.7871 C 3.66412 17.9038 3.98882 18 4.50003 18 C 4.97991 18 5.30036 17.9068 5.55179 17.7861 C 5.8245 17.6552 6.05252 17.4768 6.37503 17.2188 C 6.67751 16.9768 7.07451 16.6552 7.58304 16.4111 C 8.11286 16.1568 8.72992 16 9.50003 16 C 10.2888 16 10.9145 16.1538 11.4483 16.4121 C 11.9617 16.6606 12.35 16.9893 12.6407 17.2314 C 12.9499 17.4891 13.1615 17.6606 13.4229 17.7871 C 13.6641 17.9038 13.9888 18 14.5 18 C 14.9799 18 15.3004 17.9068 15.5518 17.7861 C 15.8245 17.6552 16.0525 17.4768 16.375 17.2188 C 16.6775 16.9768 17.0745 16.6552 17.583 16.4111 C 18.1129 16.1568 18.7299 16 19.5 16 Z" stroke-linecap="round" /></g></g></g></svg>