<svg xmlns="http://www.w3.org/2000/svg" width="16" height="16"  viewBox="0 0 16 16"><g transform="matrix(1 0 0 1 0 0)"  ><g style=""   ><g transform="matrix(0.67 0 0 0.67 8 1.33)"  ><path style="stroke: none; stroke-width: 1; stroke-dasharray: none; stroke-linecap: butt; stroke-dashoffset: 0; stroke-linejoin: miter; stroke-miterlimit: 4; fill: rgb(106,94,83); fill-rule: nonzero; opacity: 1;"  transform=" translate(-12, -2)" d="M 14 1 C 14.5523 1 15 1.44772 15 2 C 15 2.55228 14.5523 3 14 3 L 10 3 C 9.44772 3 9 2.55228 9 2 C 9 1.44772 9.44772 1 10 1 L 14 1 Z" stroke-linecap="round" /></g><g transform="matrix(0.67 0 0 0.67 9 8.33)"  ><path style="stroke: none; stroke-width: 1; stroke-dasharray: none; stroke-linecap: butt; stroke-dashoffset: 0; stroke-linejoin: miter; stroke-miterlimit: 4; fill: rgb(106,94,83); fill-rule: nonzero; opacity: 1;"  transform=" translate(-13.5, -12.5)" d="M 14.293 10.293 C 14.6835 9.90249 15.3165 9.90249 15.707 10.293 C 16.0976 10.6835 16.0976 11.3166 15.707 11.7071 L 12.707 14.7071 C 12.3165 15.0976 11.6835 15.0976 11.293 14.7071 C 10.9024 14.3166 10.9024 13.6835 11.293 13.293 L 14.293 10.293 Z" stroke-linecap="round" /></g><g transform="matrix(0.67 0 0 0.67 8 9.33)"  ><path style="stroke: none; stroke-width: 1; stroke-dasharray: none; stroke-linecap: butt; stroke-dashoffset: 0; stroke-linejoin: miter; stroke-miterlimit: 4; fill: rgb(106,94,83); fill-rule: nonzero; opacity: 1;"  transform=" translate(-12, -14)" d="M 19 14 C 19 10.134 15.866 7 12 7 C 8.13401 7 5 10.134 5 14 C 5 17.866 8.13401 21 12 21 C 15.866 21 19 17.866 19 14 Z M 21 14 C 21 18.9706 16.9706 23 12 23 C 7.02944 23 3 18.9706 3 14 C 3 9.02944 7.02944 5 12 5 C 16.9706 5 21 9.02944 21 14 Z" stroke-linecap="round" /></g></g></g></svg>