<svg xmlns="http://www.w3.org/2000/svg" width="20" height="20"  viewBox="0 0 20 20"><g transform="matrix(1 0 0 1 0 0)"  ><g style=""   ><g transform="matrix(0.83 0 0 0.83 10 10)"  ><path style="stroke: none; stroke-width: 1; stroke-dasharray: none; stroke-linecap: butt; stroke-dashoffset: 0; stroke-linejoin: miter; stroke-miterlimit: 4; fill: rgb(106,94,83); fill-rule: nonzero; opacity: 1;"  transform=" translate(-12, -12)" d="M 17.293 5.29302 C 17.6835 4.90249 18.3165 4.90249 18.707 5.29302 C 19.0976 5.68354 19.0976 6.31655 18.707 6.70708 L 6.70703 18.7071 C 6.31651 19.0976 5.68349 19.0976 5.29297 18.7071 C 4.90245 18.3166 4.90245 17.6835 5.29297 17.293 L 17.293 5.29302 Z" stroke-linecap="round" /></g><g transform="matrix(0.83 0 0 0.83 10 10)"  ><path style="stroke: none; stroke-width: 1; stroke-dasharray: none; stroke-linecap: butt; stroke-dashoffset: 0; stroke-linejoin: miter; stroke-miterlimit: 4; fill: rgb(106,94,83); fill-rule: nonzero; opacity: 1;"  transform=" translate(-12, -12)" d="M 5.29297 5.29298 C 5.65908 4.92686 6.23809 4.90427 6.63086 5.22462 L 6.70703 5.29298 L 18.707 17.293 L 18.7754 17.3692 C 19.0957 17.7619 19.0731 18.3409 18.707 18.707 C 18.3409 19.0732 17.7619 19.0958 17.3691 18.7754 L 17.293 18.707 L 5.29297 6.70704 L 5.22461 6.63087 C 4.90426 6.2381 4.92685 5.65909 5.29297 5.29298 Z" stroke-linecap="round" /></g></g></g></svg>