<svg xmlns="http://www.w3.org/2000/svg" width="16" height="16"  viewBox="0 0 16 16"><g transform="matrix(1 0 0 1 0 0)"  ><g style=""   ><g transform="matrix(0.67 0 0 0.67 8 7.67)"  ><path style="stroke: none; stroke-width: 1; stroke-dasharray: none; stroke-linecap: butt; stroke-dashoffset: 0; stroke-linejoin: miter; stroke-miterlimit: 4; fill: rgb(29,26,22); fill-rule: nonzero; opacity: 1;"  transform=" translate(-12, -11.5)" d="M 19.293 5.29295 C 19.6835 4.90243 20.3165 4.90243 20.707 5.29295 C 21.0976 5.68348 21.0976 6.31649 20.707 6.70702 L 9.70703 17.707 C 9.31651 18.0975 8.68349 18.0975 8.29297 17.707 L 3.29297 12.707 L 3.22461 12.6308 C 2.90426 12.2381 2.92685 11.6591 3.29297 11.293 C 3.65908 10.9268 4.23809 10.9042 4.63086 11.2246 L 4.70703 11.293 L 9 15.5859 L 19.293 5.29295 Z" stroke-linecap="round" /></g></g></g></svg>