<svg xmlns="http://www.w3.org/2000/svg" width="24" height="24"  viewBox="0 0 24 24"><g transform="matrix(1 0 0 1 0 0)"  ><g style=""   ><g transform="matrix(1 0 0 1 9 18)"  ><path style="stroke: none; stroke-width: 1; stroke-dasharray: none; stroke-linecap: butt; stroke-dashoffset: 0; stroke-linejoin: miter; stroke-miterlimit: 4; fill: rgb(176,147,236); fill-rule: nonzero; opacity: 1;"  transform=" translate(-9, -18)" d="M 14 15 C 14.4753 15 14.9441 15.1125 15.3672 15.3291 C 15.7903 15.5457 16.1556 15.8605 16.4336 16.2461 C 16.7115 16.6317 16.8941 17.078 16.9658 17.5479 C 17.0374 18.0176 16.9959 18.4975 16.8457 18.9482 C 16.6954 19.3992 16.4408 19.8087 16.1016 20.1416 C 15.7623 20.4745 15.3482 20.7215 14.8945 20.8633 C 14.4408 21.005 13.9597 21.0376 13.4912 20.957 C 13.0815 20.8865 12.6915 20.7315 12.3457 20.5029 L 12.2002 20.4004 L 12.1211 20.335 C 11.7483 19.9915 11.6893 19.4143 12 19 C 12.3108 18.5857 12.8812 18.4813 13.3154 18.7432 L 13.4004 18.7998 L 13.499 18.8652 C 13.6012 18.9244 13.7132 18.9652 13.8301 18.9854 C 13.9862 19.0122 14.1467 19.0013 14.2979 18.9541 C 14.449 18.9069 14.5871 18.8248 14.7002 18.7139 C 14.8132 18.603 14.8981 18.4666 14.9482 18.3164 C 14.9983 18.1662 15.0121 18.0061 14.9883 17.8496 C 14.9644 17.693 14.9042 17.5436 14.8115 17.415 C 14.7189 17.2865 14.597 17.1816 14.4561 17.1094 C 14.315 17.0372 14.1585 17 14 17 L 2 17 C 1.44772 17 1 16.5523 1 16 C 1 15.4477 1.44772 15 2 15 L 14 15 Z" stroke-linecap="round" /></g><g transform="matrix(1 0 0 1 12 9.5)"  ><path style="stroke: none; stroke-width: 1; stroke-dasharray: none; stroke-linecap: butt; stroke-dashoffset: 0; stroke-linejoin: miter; stroke-miterlimit: 4; fill: rgb(176,147,236); fill-rule: nonzero; opacity: 1;"  transform=" translate(-12, -9.5)" d="M 19.8145 6.01367 C 20.4085 6.06725 20.9789 6.27238 21.4717 6.6084 C 21.9646 6.94454 22.3641 7.40096 22.6309 7.93457 C 22.8977 8.46816 23.0229 9.06126 22.9961 9.65723 C 22.9693 10.2531 22.7911 10.8324 22.4775 11.3398 C 22.1639 11.8473 21.7252 12.2661 21.2041 12.5566 C 20.7483 12.8108 20.2425 12.9599 19.7236 12.9932 L 19.5 13 L 2 13 C 1.44772 13 1 12.5523 1 12 C 1 11.4477 1.44772 11 2 11 L 19.5 11 L 19.6904 10.9883 C 19.8795 10.9641 20.063 10.9039 20.2305 10.8105 C 20.4537 10.6861 20.642 10.5065 20.7764 10.2891 C 20.9108 10.0716 20.9866 9.82281 20.998 9.56738 C 21.0095 9.31196 20.9561 9.05779 20.8418 8.8291 C 20.7275 8.60041 20.556 8.40481 20.3447 8.26074 C 20.1336 8.11681 19.8893 8.02882 19.6348 8.00586 C 19.3802 7.98291 19.1242 8.02602 18.8906 8.12988 C 18.7153 8.2079 18.5567 8.31825 18.4238 8.45508 L 18.2998 8.59961 C 17.9685 9.04139 17.3422 9.13104 16.9004 8.79981 C 16.4586 8.46847 16.369 7.84221 16.7002 7.40039 L 16.8398 7.22559 C 17.1778 6.83033 17.6003 6.51493 18.0771 6.30274 C 18.6222 6.06018 19.2203 5.9601 19.8145 6.01367 Z" stroke-linecap="round" /></g><g transform="matrix(1 0 0 1 7.5 6)"  ><path style="stroke: none; stroke-width: 1; stroke-dasharray: none; stroke-linecap: butt; stroke-dashoffset: 0; stroke-linejoin: miter; stroke-miterlimit: 4; fill: rgb(176,147,236); fill-rule: nonzero; opacity: 1;"  transform=" translate(-7.5, -6)" d="M 10.4912 3.04297 C 10.9597 2.96238 11.4408 2.99499 11.8945 3.13672 C 12.3482 3.27847 12.7623 3.52551 13.1016 3.8584 C 13.4408 4.19131 13.6954 4.60085 13.8457 5.05176 C 13.9959 5.50255 14.0374 5.98243 13.9658 6.45215 C 13.8941 6.92204 13.7115 7.3683 13.4336 7.75391 C 13.1556 8.13954 12.7903 8.45429 12.3672 8.6709 C 11.9441 8.88749 11.4753 9.00001 11 9.00001 L 2 9.00001 C 1.44772 9.00001 1 8.55229 1 8.00001 C 1 7.44772 1.44772 7.00001 2 7.00001 L 11 7.00001 C 11.1585 7.00001 11.315 6.96283 11.4561 6.89063 C 11.597 6.81844 11.7189 6.71347 11.8115 6.58497 C 11.9042 6.45642 11.9644 6.30704 11.9883 6.1504 C 12.0121 5.99387 11.9983 5.8338 11.9482 5.6836 C 11.8981 5.5334 11.8132 5.39704 11.7002 5.28614 C 11.5871 5.17523 11.449 5.09313 11.2979 5.0459 C 11.1467 4.9987 10.9862 4.9878 10.8301 5.01465 C 10.6741 5.04155 10.527 5.10528 10.4004 5.2002 L 10.3154 5.25684 C 9.88125 5.51874 9.31076 5.41435 9 5.00001 C 8.66863 4.55818 8.75837 3.93099 9.2002 3.59962 L 9.3457 3.49708 C 9.69147 3.26854 10.0815 3.11347 10.4912 3.04297 Z" stroke-linecap="round" /></g></g></g></svg>