<svg xmlns="http://www.w3.org/2000/svg" width="24" height="24"  viewBox="0 0 24 24"><g transform="matrix(1 0 0 1 0 0)"  ><g style=""   ><g transform="matrix(1 0 0 1 12 12)"  ><path style="stroke: none; stroke-width: 1; stroke-dasharray: none; stroke-linecap: butt; stroke-dashoffset: 0; stroke-linejoin: miter; stroke-miterlimit: 4; fill: rgb(236,150,121); fill-rule: nonzero; opacity: 1;"  transform=" translate(-12, -12)" d="M 21 12 C 21 7.02944 16.9706 3 12 3 C 7.02944 3 3 7.02944 3 12 C 3 16.9706 7.02944 21 12 21 C 16.9706 21 21 16.9706 21 12 Z M 23 12 C 23 18.0751 18.0751 23 12 23 C 5.92487 23 1 18.0751 1 12 C 1 5.92487 5.92487 1 12 1 C 18.0751 1 23 5.92487 23 12 Z" stroke-linecap="round" /></g><g transform="matrix(1 0 0 1 12 15)"  ><path style="stroke: none; stroke-width: 1; stroke-dasharray: none; stroke-linecap: butt; stroke-dashoffset: 0; stroke-linejoin: miter; stroke-miterlimit: 4; fill: rgb(236,150,121); fill-rule: nonzero; opacity: 1;"  transform=" translate(-12, -15)" d="M 15.2012 13.3975 L 15.2012 13.3984 L 15.2002 13.3994 L 15.2002 13.4004 C 15.5315 12.9586 16.1578 12.869 16.5996 13.2002 C 17.0414 13.5315 17.131 14.1578 16.7998 14.5996 L 15.6601 13.7451 C 15.7533 13.815 15.8653 13.899 16 14 C 16.7839 14.5879 16.7997 14.6 16.7998 14.6006 L 16.7978 14.6025 C 16.797 14.6036 16.7959 14.6051 16.7949 14.6064 C 16.7929 14.6091 16.7908 14.6126 16.7881 14.6162 C 16.7825 14.6234 16.7752 14.6327 16.7666 14.6435 C 16.7494 14.6653 16.7255 14.6937 16.6963 14.7285 C 16.6376 14.7984 16.5547 14.8938 16.4482 15.0049 C 16.2362 15.2261 15.926 15.5172 15.5254 15.8086 C 14.7274 16.3889 13.5254 17 12 17 C 10.4745 17 9.27254 16.3889 8.4746 15.8086 C 8.07395 15.5172 7.76382 15.2261 7.55175 15.0049 C 7.4453 14.8938 7.36235 14.7984 7.3037 14.7285 C 7.27445 14.6937 7.25061 14.6653 7.23339 14.6435 C 7.2248 14.6327 7.21747 14.6234 7.21191 14.6162 C 7.20914 14.6126 7.20708 14.6091 7.20507 14.6064 C 7.20406 14.6051 7.20296 14.6036 7.20214 14.6025 L 7.20019 14.6006 C 7.20026 14.6 7.21605 14.5879 7.99999 14 C 8.13468 13.899 8.2467 13.815 8.33984 13.7451 L 7.20019 14.5996 C 6.86896 14.1578 6.95861 13.5315 7.40038 13.2002 C 7.8421 12.869 8.46743 12.9589 8.79882 13.4004 L 8.7998 13.3994 L 8.79882 13.3984 L 8.79882 13.3975 L 8.79784 13.3975 C 8.79864 13.3985 8.80029 13.3995 8.80175 13.4014 C 8.8077 13.4089 8.81841 13.4236 8.83495 13.4434 C 8.86805 13.4828 8.92207 13.5439 8.99511 13.6201 C 9.14239 13.7738 9.36383 13.983 9.65038 14.1914 C 10.2274 14.6111 11.0255 15 12 15 C 12.9745 15 13.7725 14.6111 14.3496 14.1914 C 14.6362 13.983 14.8576 13.7738 15.0049 13.6201 C 15.0779 13.5439 15.1319 13.4828 15.165 13.4434 C 15.1816 13.4236 15.1923 13.4089 15.1982 13.4014 L 15.2012 13.3975 Z" stroke-linecap="round" /></g><g transform="matrix(1 0 0 1 9 9)"  ><path style="stroke: none; stroke-width: 1; stroke-dasharray: none; stroke-linecap: butt; stroke-dashoffset: 0; stroke-linejoin: miter; stroke-miterlimit: 4; fill: rgb(236,150,121); fill-rule: nonzero; opacity: 1;"  transform=" translate(-9, -9)" d="M 9.00977 8 L 9.1123 8.00488 C 9.61655 8.05611 10.0098 8.48224 10.0098 9 C 10.0098 9.51776 9.61655 9.94389 9.1123 9.99512 L 9.00977 10 L 9 10 C 8.44772 10 8 9.55228 8 9 C 8 8.44772 8.44772 8 9 8 L 9.00977 8 Z" stroke-linecap="round" /></g><g transform="matrix(1 0 0 1 15 9)"  ><path style="stroke: none; stroke-width: 1; stroke-dasharray: none; stroke-linecap: butt; stroke-dashoffset: 0; stroke-linejoin: miter; stroke-miterlimit: 4; fill: rgb(236,150,121); fill-rule: nonzero; opacity: 1;"  transform=" translate(-15, -9)" d="M 15.0098 8 L 15.1123 8.00488 C 15.6165 8.05611 16.0098 8.48224 16.0098 9 C 16.0098 9.51776 15.6165 9.94389 15.1123 9.99512 L 15.0098 10 L 15 10 C 14.4477 10 14 9.55228 14 9 C 14 8.44772 14.4477 8 15 8 L 15.0098 8 Z" stroke-linecap="round" /></g></g></g></svg>