<svg xmlns="http://www.w3.org/2000/svg" width="24" height="24"  viewBox="0 0 24 24"><g transform="matrix(1 0 0 1 0 0)"  ><g style=""   ><g transform="matrix(1 0 0 1 16.36 7.64)" clip-path="url(#CLIPPATH_61794)"  ><clipPath id="CLIPPATH_61794" ><rect transform="matrix(1 0 0 1 -4.36 4.36)" id="clip0_1_7669" x="-12" y="-12" rx="0" ry="0" width="24" height="24" /></clipPath><path style="stroke: none; stroke-width: 1; stroke-dasharray: none; stroke-linecap: butt; stroke-dashoffset: 0; stroke-linejoin: miter; stroke-miterlimit: 4; fill: rgb(106,94,83); fill-rule: nonzero; opacity: 1;"  transform=" translate(-16.36, -7.64)" d="M 9.64609 4.9895 C 9.64609 4.59549 9.72382 4.20509 9.8746 3.84106 C 10.0254 3.47713 10.2464 3.14598 10.525 2.86743 C 10.8035 2.58895 11.1347 2.36777 11.4986 2.21704 C 11.8624 2.06643 12.2524 1.98956 12.6461 1.9895 C 13.04 1.9895 13.4306 2.06634 13.7945 2.21704 C 14.06 2.327 14.3071 2.47576 14.5299 2.65552 C 14.6762 2.34385 14.8735 2.05496 15.1217 1.80688 C 15.6843 1.2446 16.4473 0.928882 17.2428 0.928955 C 18.0383 0.929096 18.8014 1.24531 19.3639 1.80786 L 22.192 4.63599 L 22.3902 4.85376 C 22.577 5.08128 22.7292 5.33575 22.8424 5.60864 C 22.9932 5.9726 23.0708 6.36311 23.0709 6.75708 C 23.0709 7.15102 22.994 7.54154 22.8434 7.90552 C 22.6927 8.26933 22.4713 8.59965 22.193 8.87817 C 21.9469 9.12433 21.6578 9.32144 21.3434 9.46899 C 21.7725 10.0003 22.0113 10.6644 22.0113 11.3538 L 21.9967 11.6497 C 21.9286 12.3366 21.6247 12.9824 21.1324 13.4749 C 20.6401 13.9672 19.994 14.2709 19.3072 14.3391 L 19.0103 14.3538 C 18.314 14.3537 17.6429 14.1116 17.109 13.6741 L 16.8893 13.4749 L 10.525 7.11157 C 10.2464 6.83302 10.0254 6.50187 9.8746 6.13794 C 9.72382 5.77391 9.64609 5.38352 9.64609 4.9895 Z M 11.6461 4.9895 C 11.6461 5.12087 11.672 5.25095 11.7223 5.37231 C 11.7725 5.4936 11.8463 5.60368 11.9391 5.69653 L 18.3033 12.0608 L 18.3766 12.1272 C 18.5545 12.273 18.7782 12.3537 19.0103 12.3538 L 19.109 12.3489 C 19.3381 12.3262 19.5541 12.225 19.7184 12.0608 C 19.8824 11.8967 19.9837 11.6813 20.0064 11.4524 L 20.0113 11.3538 C 20.0113 11.0885 19.9059 10.8334 19.7184 10.6458 L 19.7184 10.6467 L 17.9498 8.87915 C 17.5594 8.4887 17.5594 7.85564 17.9498 7.46509 C 18.3157 7.09902 18.8949 7.07579 19.2877 7.39575 L 19.3639 7.46509 L 19.4371 7.53149 C 19.615 7.67721 19.8389 7.75706 20.0709 7.75708 L 20.1695 7.75317 C 20.2671 7.74351 20.3628 7.7186 20.4537 7.68091 C 20.575 7.63063 20.6851 7.55698 20.7779 7.46411 C 20.8708 7.37124 20.9445 7.26122 20.9947 7.13989 C 21.0449 7.01856 21.0709 6.8884 21.0709 6.75708 C 21.0708 6.62584 21.045 6.49551 20.9947 6.37427 C 20.9571 6.28354 20.9064 6.19897 20.8443 6.12329 L 20.7779 6.05005 L 17.9498 3.22192 C 17.7623 3.03438 17.508 2.92903 17.2428 2.92896 C 16.9776 2.92891 16.7233 3.03443 16.5357 3.22192 C 16.3482 3.40944 16.2428 3.66372 16.2428 3.92896 C 16.2428 4.18918 16.344 4.43877 16.525 4.62524 L 16.5357 4.63599 L 16.6041 4.71216 C 16.9242 5.105 16.9009 5.68407 16.5348 6.05005 C 16.1686 6.41607 15.5896 6.43883 15.1969 6.11841 L 15.1207 6.05005 L 13.3541 4.28149 L 13.3541 4.28247 C 13.2612 4.18957 13.1503 4.11595 13.0289 4.06567 C 12.9076 4.01546 12.7774 3.9895 12.6461 3.9895 C 12.5148 3.98956 12.3845 4.01545 12.2633 4.06567 C 12.1421 4.11594 12.0318 4.18969 11.9391 4.28247 C 11.8463 4.37533 11.7725 4.4854 11.7223 4.60669 C 11.672 4.72806 11.6461 4.85813 11.6461 4.9895 Z" stroke-linecap="round" /></g><g transform="matrix(1 0 0 1 3.2 20.8)" clip-path="url(#CLIPPATH_61795)"  ><clipPath id="CLIPPATH_61795" ><rect transform="matrix(1 0 0 1 8.8 -8.8)" id="clip0_1_7669" x="-12" y="-12" rx="0" ry="0" width="24" height="24" /></clipPath><path style="stroke: none; stroke-width: 1; stroke-dasharray: none; stroke-linecap: butt; stroke-dashoffset: 0; stroke-linejoin: miter; stroke-miterlimit: 4; fill: rgb(106,94,83); fill-rule: nonzero; opacity: 1;"  transform=" translate(-3.2, -20.8)" d="M 3.26855 19.3246 C 3.66133 19.004 4.24119 19.0268 4.60742 19.393 C 4.97329 19.7591 4.99591 20.3382 4.67578 20.7309 L 4.60742 20.8071 L 3.20703 22.2074 C 2.81655 22.5977 2.18344 22.5977 1.79296 22.2074 C 1.4025 21.817 1.40263 21.1839 1.79296 20.7934 L 3.19335 19.393 L 3.26855 19.3246 Z" stroke-linecap="round" /></g><g transform="matrix(1 0 0 1 20.8 3.2)" clip-path="url(#CLIPPATH_61796)"  ><clipPath id="CLIPPATH_61796" ><rect transform="matrix(1 0 0 1 -8.8 8.8)" id="clip0_1_7669" x="-12" y="-12" rx="0" ry="0" width="24" height="24" /></clipPath><path style="stroke: none; stroke-width: 1; stroke-dasharray: none; stroke-linecap: butt; stroke-dashoffset: 0; stroke-linejoin: miter; stroke-miterlimit: 4; fill: rgb(106,94,83); fill-rule: nonzero; opacity: 1;"  transform=" translate(-20.8, -3.2)" d="M 20.8686 1.72459 C 21.2613 1.40394 21.8412 1.42673 22.2074 1.79295 C 22.5733 2.15902 22.5959 2.73814 22.2758 3.13084 L 22.2074 3.20702 L 20.807 4.60741 C 20.4166 4.99767 19.7834 4.99767 19.393 4.60741 C 19.0025 4.21695 19.0026 3.58388 19.393 3.19334 L 20.7934 1.79295 L 20.8686 1.72459 Z" stroke-linecap="round" /></g><g transform="matrix(1 0 0 1 7.64 16.36)" clip-path="url(#CLIPPATH_61797)"  ><clipPath id="CLIPPATH_61797" ><rect transform="matrix(1 0 0 1 4.36 -4.36)" id="clip0_1_7669" x="-12" y="-12" rx="0" ry="0" width="24" height="24" /></clipPath><path style="stroke: none; stroke-width: 1; stroke-dasharray: none; stroke-linecap: butt; stroke-dashoffset: 0; stroke-linejoin: miter; stroke-miterlimit: 4; fill: rgb(106,94,83); fill-rule: nonzero; opacity: 1;"  transform=" translate(-7.64, -16.36)" d="M 0.928955 17.2428 C 0.928882 16.4474 1.2446 15.6843 1.80688 15.1217 C 2.05496 14.8735 2.34385 14.6762 2.65552 14.5299 C 2.47576 14.3071 2.327 14.06 2.21704 13.7946 C 2.10403 13.5216 2.03206 13.2339 2.00317 12.941 L 1.9895 12.6461 C 1.98956 12.2524 2.06643 11.8624 2.21704 11.4987 C 2.36777 11.1348 2.58895 10.8036 2.86743 10.525 C 3.14598 10.2465 3.47713 10.0254 3.84106 9.87463 C 4.20509 9.72385 4.59549 9.64612 4.9895 9.64612 L 5.28442 9.66077 C 5.57728 9.68969 5.86507 9.76161 6.13794 9.87463 C 6.50187 10.0254 6.83302 10.2465 7.11157 10.525 L 13.4749 16.8893 L 13.6741 17.109 C 14.1116 17.6429 14.3537 18.3141 14.3538 19.0104 L 14.3391 19.3073 C 14.2709 19.994 13.9672 20.6401 13.4749 21.1324 C 12.9824 21.6247 12.3366 21.9286 11.6497 21.9967 L 11.3538 22.0114 C 10.6644 22.0114 10.0003 21.7726 9.46899 21.3434 C 9.32144 21.6578 9.12433 21.9469 8.87817 22.193 C 8.59965 22.4713 8.26933 22.6927 7.90552 22.8434 C 7.63241 22.9565 7.34413 23.0275 7.05103 23.0563 L 6.75708 23.0709 C 6.06084 23.0708 5.3895 22.8288 4.85571 22.3912 L 4.63599 22.192 L 1.80786 19.3639 C 1.24531 18.8014 0.929096 18.0383 0.928955 17.2428 Z M 3.99438 12.7448 C 4.00402 12.8423 4.02803 12.938 4.06567 13.0289 C 4.11595 13.1503 4.18957 13.2612 4.28247 13.3541 L 4.28149 13.3541 L 6.05005 15.1207 L 6.11841 15.1969 C 6.43883 15.5896 6.41607 16.1686 6.05005 16.5348 C 5.65968 16.9253 5.02661 16.926 4.63599 16.5358 L 4.62524 16.525 C 4.43877 16.3441 4.18918 16.2428 3.92896 16.2428 C 3.66372 16.2428 3.40944 16.3482 3.22192 16.5358 C 3.03443 16.7233 2.92891 16.9776 2.92896 17.2428 C 2.92903 17.508 3.03438 17.7623 3.22192 17.9498 L 6.05005 20.778 L 6.12329 20.8444 C 6.30119 20.9903 6.52499 21.0708 6.75708 21.0709 L 6.85571 21.066 C 6.95328 21.0564 7.04898 21.0324 7.13989 20.9948 C 7.26122 20.9445 7.37124 20.8708 7.46411 20.778 C 7.55698 20.6851 7.63063 20.575 7.68091 20.4537 C 7.73119 20.3324 7.75706 20.2023 7.75708 20.0709 L 7.75317 19.9733 C 7.74358 19.8755 7.71959 19.7792 7.68188 19.6881 C 7.64423 19.5972 7.59268 19.5129 7.53052 19.4371 L 7.46509 19.3639 C 7.0747 18.9733 7.07451 18.3403 7.46509 17.9498 C 7.83123 17.5839 8.41028 17.5612 8.80298 17.8815 L 8.87915 17.9498 L 10.6467 19.7184 L 10.6458 19.7184 C 10.8334 19.906 11.0885 20.0114 11.3538 20.0114 L 11.4524 20.0065 C 11.6813 19.9838 11.8967 19.8824 12.0608 19.7184 C 12.225 19.5541 12.3262 19.3382 12.3489 19.109 L 12.3538 19.0104 C 12.3537 18.7783 12.273 18.5546 12.1272 18.3766 L 12.0608 18.3033 L 5.69653 11.9391 C 5.60368 11.8463 5.4936 11.7725 5.37231 11.7223 C 5.28143 11.6846 5.18567 11.6607 5.08813 11.651 L 4.9895 11.6461 C 4.85813 11.6461 4.72806 11.672 4.60669 11.7223 C 4.4854 11.7725 4.37533 11.8463 4.28247 11.9391 C 4.18969 12.0319 4.11594 12.1421 4.06567 12.2633 C 4.01545 12.3846 3.98956 12.5149 3.9895 12.6461 L 3.99438 12.7448 Z" stroke-linecap="round" /></g><g transform="matrix(1 0 0 1 12 12)" clip-path="url(#CLIPPATH_61798)"  ><clipPath id="CLIPPATH_61798" ><rect transform="matrix(1 0 0 1 0 0)" id="clip0_1_7669" x="-12" y="-12" rx="0" ry="0" width="24" height="24" /></clipPath><path style="stroke: none; stroke-width: 1; stroke-dasharray: none; stroke-linecap: butt; stroke-dashoffset: 0; stroke-linejoin: miter; stroke-miterlimit: 4; fill: rgb(106,94,83); fill-rule: nonzero; opacity: 1;"  transform=" translate(-12, -12)" d="M 13.6928 8.89294 C 14.0833 8.50245 14.7163 8.50252 15.1068 8.89294 C 15.4974 9.28347 15.4974 9.91648 15.1068 10.307 L 10.307 15.1068 C 9.91651 15.4973 9.2835 15.4973 8.89297 15.1068 C 8.50255 14.7163 8.50248 14.0832 8.89297 13.6927 L 13.6928 8.89294 Z" stroke-linecap="round" /></g></g></g></svg>