<svg xmlns="http://www.w3.org/2000/svg" width="20" height="20"  viewBox="0 0 20 20"><g transform="matrix(1 0 0 1 0 0)"  ><g style=""   ><g transform="matrix(0.83 0 0 0.83 8.33 10)"  ><path style="stroke: none; stroke-width: 1; stroke-dasharray: none; stroke-linecap: butt; stroke-dashoffset: 0; stroke-linejoin: miter; stroke-miterlimit: 4; fill: rgb(106,94,83); fill-rule: nonzero; opacity: 1;"  transform=" translate(-10, -12)" d="M 17 9 C 17 8.44772 16.5523 8 16 8 L 4 8 C 3.44772 8 3 8.44772 3 9 L 3 15 C 3 15.5523 3.44772 16 4 16 L 16 16 C 16.5523 16 17 15.5523 17 15 L 17 9 Z M 19 15 C 19 16.6569 17.6569 18 16 18 L 4 18 C 2.34315 18 1 16.6569 1 15 L 1 9 C 1 7.34315 2.34315 6 4 6 L 16 6 C 17.6569 6 19 7.34315 19 9 L 19 15 Z" stroke-linecap="round" /></g><g transform="matrix(0.83 0 0 0.83 18.33 10)"  ><path style="stroke: none; stroke-width: 1; stroke-dasharray: none; stroke-linecap: butt; stroke-dashoffset: 0; stroke-linejoin: miter; stroke-miterlimit: 4; fill: rgb(106,94,83); fill-rule: nonzero; opacity: 1;"  transform=" translate(-22, -12)" d="M 21 13 L 21 11 C 21 10.4477 21.4477 10 22 10 C 22.5523 10 23 10.4477 23 11 L 23 13 C 23 13.5523 22.5523 14 22 14 C 21.4477 14 21 13.5523 21 13 Z" stroke-linecap="round" /></g><g transform="matrix(0.83 0 0 0.83 5 10)"  ><path style="stroke: none; stroke-width: 1; stroke-dasharray: none; stroke-linecap: butt; stroke-dashoffset: 0; stroke-linejoin: miter; stroke-miterlimit: 4; fill: rgb(106,94,83); fill-rule: nonzero; opacity: 1;"  transform=" translate(-6, -12)" d="M 5 13 L 5 11 C 5 10.4477 5.44772 10 6 10 C 6.55228 10 7 10.4477 7 11 L 7 13 C 7 13.5523 6.55228 14 6 14 C 5.44772 14 5 13.5523 5 13 Z" stroke-linecap="round" /></g></g></g></svg>