<svg xmlns="http://www.w3.org/2000/svg" width="24" height="24"  viewBox="0 0 24 24"><g transform="matrix(1 0 0 1 0 0)"  ><g style=""   ><g transform="matrix(0.86 0 0 0.86 18.86 9.43)"  ><circle style="stroke: rgb(29,26,22); stroke-width: 2.4; stroke-dasharray: none; stroke-linecap: butt; stroke-dashoffset: 0; stroke-linejoin: miter; stroke-miterlimit: 10; fill: none; fill-rule: nonzero; opacity: 1;"  cx="0" cy="0" r="2" /></g><g transform="matrix(0.86 0 0 0.86 17.08 11.89)"  ><path style="stroke: rgb(29,26,22); stroke-width: 2.4; stroke-dasharray: none; stroke-linecap: butt; stroke-dashoffset: 0; stroke-linejoin: miter; stroke-miterlimit: 10; fill: none; fill-rule: nonzero; opacity: 1;"  transform=" translate(-17.93, -11.87)" d="M 15.667 6.778 L 13.535 7.4879999999999995 C 13.206104406909802 7.597536259441121 12.957398993472296 7.869593802173706 12.877739940804128 8.20697331935653 C 12.798080888135962 8.544352836539355 12.898832968195752 8.89892117634769 13.144 9.144 L 20.679000000000002 16.679000000000002 C 20.939813153041396 16.939389956057507 21.322709398534514 17.035217658810783 21.67542957981783 16.92837710597393 C 22.028149761101147 16.821536553137072 22.293514044229617 16.529347777398833 22.366000000000003 16.168000000000003 L 23 13" stroke-linecap="round" /></g><g transform="matrix(0.86 0 0 0.86 6 11.5)"  ><path style="stroke: rgb(29,26,22); stroke-width: 2.4; stroke-dasharray: none; stroke-linecap: butt; stroke-dashoffset: 0; stroke-linejoin: miter; stroke-miterlimit: 10; fill: none; fill-rule: nonzero; opacity: 1;"  transform=" translate(-5, -11.42)" d="M 8 12 L 7.447 10.894 C 7.199941836093651 10.400472960917254 6.599762754574727 10.200413267077613 6.106 10.447000000000001 L 2 12.5" stroke-linecap="round" /></g><g transform="matrix(0.86 0 0 0.86 13.14 12.71)"  ><line style="stroke: rgb(29,26,22); stroke-width: 2.4; stroke-dasharray: none; stroke-linecap: butt; stroke-dashoffset: 0; stroke-linejoin: miter; stroke-miterlimit: 10; fill: none; fill-rule: nonzero; opacity: 1;"  x1="2.3335" y1="-1.1665" x2="-2.3335" y2="1.1665" /></g><g transform="matrix(0.86 0 0 0.86 10 15.44)"  ><path style="stroke: rgb(29,26,22); stroke-width: 2.4; stroke-dasharray: none; stroke-linecap: butt; stroke-dashoffset: 0; stroke-linejoin: miter; stroke-miterlimit: 10; fill: none; fill-rule: nonzero; opacity: 1;"  transform=" translate(-9.67, -16.02)" d="M 18.333 14.333 L 11.572 17.714 C 11.223019745270886 17.888351933793878 10.804507714304151 17.843845990202265 10.5 17.6 L 6.543 14.434 C 6.215692797432484 14.171335022058411 5.759202121353242 14.140982186203622 5.4 14.358 L 1 17" stroke-linecap="round" /></g></g></g></svg>