<svg xmlns="http://www.w3.org/2000/svg" width="16" height="16"  viewBox="0 0 16 16"><g transform="matrix(1 0 0 1 0 0)"  ><g style=""   ><g transform="matrix(0.67 0 0 0.67 11.67 8)"  ><path style="stroke: none; stroke-width: 1; stroke-dasharray: none; stroke-linecap: butt; stroke-dashoffset: 0; stroke-linejoin: miter; stroke-miterlimit: 4; fill: rgb(106,94,83); fill-rule: nonzero; opacity: 1;"  transform=" translate(-17.5, -12)" d="M 12.5605 4.10154 C 12.9036 3.93374 13.3128 3.97643 13.6143 4.21092 L 22.6143 11.2109 C 22.8576 11.4004 23 11.6915 23 12 C 23 12.3084 22.8576 12.5996 22.6143 12.789 L 13.6143 19.789 C 13.3128 20.0235 12.9036 20.0662 12.5605 19.8984 C 12.2175 19.7306 12 19.3819 12 19 L 12 4.99998 C 12 4.61806 12.2175 4.26935 12.5605 4.10154 Z M 14 16.9551 L 20.3711 12 L 14 7.04393 L 14 16.9551 Z" stroke-linecap="round" /></g><g transform="matrix(0.67 0 0 0.67 4.33 8)"  ><path style="stroke: none; stroke-width: 1; stroke-dasharray: none; stroke-linecap: butt; stroke-dashoffset: 0; stroke-linejoin: miter; stroke-miterlimit: 4; fill: rgb(106,94,83); fill-rule: nonzero; opacity: 1;"  transform=" translate(-6.5, -12)" d="M 1.56055 4.10154 C 1.90364 3.93374 2.31278 3.97643 2.61426 4.21092 L 11.6143 11.2109 C 11.8576 11.4004 12 11.6915 12 12 C 12 12.3084 11.8576 12.5996 11.6143 12.789 L 2.61426 19.789 C 2.31278 20.0235 1.90364 20.0662 1.56055 19.8984 C 1.21747 19.7306 1 19.3819 1 19 L 1 4.99998 C 1 4.61806 1.21747 4.26935 1.56055 4.10154 Z M 3 16.9551 L 9.37109 12 L 3 7.04393 L 3 16.9551 Z" stroke-linecap="round" /></g></g></g></svg>