<svg xmlns="http://www.w3.org/2000/svg" width="24" height="24"  viewBox="0 0 24 24"><g transform="matrix(1 0 0 1 0 0)"  ><g style=""   ><g transform="matrix(1 0 0 1 7 11.5)"  ><path style="stroke: none; stroke-width: 1; stroke-dasharray: none; stroke-linecap: butt; stroke-dashoffset: 0; stroke-linejoin: miter; stroke-miterlimit: 4; fill: rgb(251,203,106); fill-rule: nonzero; opacity: 1;"  transform=" translate(-7, -11.5)" d="M 7.0004 6 C 8.06112 6.0001 9.07847 6.42182 9.82853 7.17188 C 10.4756 7.81907 10.8777 8.66511 10.976 9.56641 C 11.5754 9.92476 12.0737 10.4367 12.4174 11.0537 C 12.8732 11.8721 13.0274 12.8247 12.8529 13.7451 C 12.6784 14.6656 12.1862 15.4961 11.4623 16.0908 C 10.7404 16.6838 9.83387 17.0045 8.89981 16.999 L 8.89981 17 L 4.97501 17 C 4.04941 16.9769 3.16005 16.6336 2.45938 16.0283 C 1.75876 15.4231 1.29056 14.593 1.13321 13.6807 C 0.975897 12.7682 1.13957 11.8294 1.59708 11.0244 C 1.94071 10.4199 2.43337 9.91791 3.02384 9.56543 C 3.12227 8.66453 3.52448 7.81883 4.1713 7.17188 C 4.92144 6.42173 5.93953 6 7.0004 6 Z M 7.0004 8 C 6.46997 8 5.96043 8.21086 5.58536 8.58594 C 5.21047 8.96098 5.0004 9.4697 5.0004 10 L 5.0004 10.2002 C 5.00032 10.6142 4.74436 10.9855 4.35782 11.1338 C 3.9258 11.2996 3.56505 11.6104 3.33634 12.0127 C 3.10756 12.4152 3.02526 12.8846 3.10392 13.3408 C 3.18259 13.797 3.41669 14.212 3.767 14.5146 C 4.11733 14.8173 4.56202 14.9885 5.02481 15 L 8.90763 15 L 9.08243 14.9941 C 9.48831 14.9617 9.87605 14.8052 10.1928 14.5449 C 10.5546 14.2476 10.8008 13.8331 10.8881 13.373 C 10.9754 12.9129 10.8982 12.4366 10.6703 12.0273 C 10.4424 11.6181 10.0782 11.3019 9.64103 11.1338 C 9.25487 10.9853 9.00048 10.6139 9.0004 10.2002 L 9.0004 10 L 8.99063 9.80273 C 8.94527 9.34481 8.74264 8.91421 8.41446 8.58594 C 8.03948 8.21096 7.53069 8.0001 7.0004 8 Z" stroke-linecap="round" /></g><g transform="matrix(1 0 0 1 7 19)"  ><path style="stroke: none; stroke-width: 1; stroke-dasharray: none; stroke-linecap: butt; stroke-dashoffset: 0; stroke-linejoin: miter; stroke-miterlimit: 4; fill: rgb(251,203,106); fill-rule: nonzero; opacity: 1;"  transform=" translate(-7, -19)" d="M 6 22 L 6 16 C 6 15.4477 6.44772 15 7 15 C 7.55228 15 8 15.4477 8 16 L 8 22 C 8 22.5523 7.55228 23 7 23 C 6.44772 23 6 22.5523 6 22 Z" stroke-linecap="round" /></g><g transform="matrix(1 0 0 1 13 20.5)"  ><path style="stroke: none; stroke-width: 1; stroke-dasharray: none; stroke-linecap: butt; stroke-dashoffset: 0; stroke-linejoin: miter; stroke-miterlimit: 4; fill: rgb(251,203,106); fill-rule: nonzero; opacity: 1;"  transform=" translate(-13, -20.5)" d="M 12 22 L 12 19 C 12 18.4477 12.4477 18 13 18 C 13.5523 18 14 18.4477 14 19 L 14 22 C 14 22.5523 13.5523 23 13 23 C 12.4477 23 12 22.5523 12 22 Z" stroke-linecap="round" /></g><g transform="matrix(1 0 0 1 16.44 11)"  ><path style="stroke: none; stroke-width: 1; stroke-dasharray: none; stroke-linecap: butt; stroke-dashoffset: 0; stroke-linejoin: miter; stroke-miterlimit: 4; fill: rgb(251,203,106); fill-rule: nonzero; opacity: 1;"  transform=" translate(-16.44, -11)" d="M 13.0004 2 C 13.2779 2.00023 13.5429 2.11618 13.7318 2.31934 L 17.7104 6.5957 L 17.8139 6.70898 C 18.045 6.98095 18.2002 7.31052 18.2611 7.66406 C 18.3308 8.06827 18.2737 8.48435 18.099 8.85547 C 18.0031 9.05935 17.8731 9.24322 17.7172 9.40234 L 19.7397 11.627 L 19.7387 11.627 C 19.9988 11.9022 20.1768 12.245 20.2494 12.6172 C 20.3243 13.0015 20.2842 13.3997 20.1352 13.7617 C 20.0368 14.0006 19.8923 14.2157 19.7133 14.3984 L 21.7397 16.627 L 21.7387 16.627 C 21.9988 16.9022 22.1768 17.245 22.2494 17.6172 C 22.3243 18.0015 22.2842 18.3997 22.1352 18.7617 C 21.9861 19.1237 21.7343 19.4342 21.4106 19.6543 C 21.0868 19.8744 20.7053 19.9945 20.3139 20 L 12.0004 20 C 11.4481 20 11.0004 19.5523 11.0004 19 C 11.0004 18.4477 11.4481 18 12.0004 18 L 20.2856 18 C 20.2768 17.9911 20.2685 17.9819 20.2602 17.9727 L 17.2602 14.6729 C 16.994 14.38 16.9254 13.9576 17.0854 13.5957 C 17.2455 13.2337 17.6046 13 18.0004 13 L 18.2856 13 C 18.2768 12.9911 18.2685 12.9819 18.2602 12.9727 L 15.2602 9.67285 C 14.994 9.38004 14.9254 8.95763 15.0854 8.5957 C 15.2455 8.23372 15.6046 8 16.0004 8 L 16.1996 8 L 16.2895 8.00391 L 16.268 7.98145 L 12.9984 4.4668 L 12.3314 5.18262 C 11.9546 5.58636 11.3211 5.60825 10.9174 5.23145 C 10.5136 4.85462 10.4918 4.22114 10.8686 3.81738 L 12.2689 2.31738 L 12.3432 2.24609 C 12.5245 2.08813 12.7576 1.9999 13.0004 2 Z" stroke-linecap="round" /></g></g></g></svg>