<svg xmlns="http://www.w3.org/2000/svg" width="24" height="24"  viewBox="0 0 24 24"><g transform="matrix(1 0 0 1 0 0)"  ><g style=""   ><g transform="matrix(1 0 0 1 12 12)"  ><path style="stroke: none; stroke-width: 1; stroke-dasharray: none; stroke-linecap: butt; stroke-dashoffset: 0; stroke-linejoin: miter; stroke-miterlimit: 4; fill: rgb(236,150,121); fill-rule: nonzero; opacity: 1;"  transform=" translate(-12, -12)" d="M 11 22 L 11 2 C 11 1.44772 11.4477 1 12 1 C 12.5523 1 13 1.44772 13 2 L 13 22 C 13 22.5523 12.5523 23 12 23 C 11.4477 23 11 22.5523 11 22 Z" stroke-linecap="round" /></g><g transform="matrix(1 0 0 1 12 20.5)"  ><path style="stroke: none; stroke-width: 1; stroke-dasharray: none; stroke-linecap: butt; stroke-dashoffset: 0; stroke-linejoin: miter; stroke-miterlimit: 4; fill: rgb(236,150,121); fill-rule: nonzero; opacity: 1;"  transform=" translate(-12, -20.5)" d="M 14.293 18.293 C 14.6835 17.9025 15.3165 17.9025 15.707 18.293 C 16.0976 18.6835 16.0976 19.3166 15.707 19.7071 L 12.707 22.7071 C 12.3409 23.0732 11.7619 23.0958 11.3692 22.7754 L 11.293 22.7071 L 8.29298 19.7071 L 8.22462 19.6309 C 7.90427 19.2381 7.92686 18.6591 8.29298 18.293 C 8.65909 17.9269 9.2381 17.9043 9.63087 18.2247 L 9.70704 18.293 L 12 20.586 L 14.293 18.293 Z" stroke-linecap="round" /></g><g transform="matrix(1 0 0 1 20.5 12)"  ><path style="stroke: none; stroke-width: 1; stroke-dasharray: none; stroke-linecap: butt; stroke-dashoffset: 0; stroke-linejoin: miter; stroke-miterlimit: 4; fill: rgb(236,150,121); fill-rule: nonzero; opacity: 1;"  transform=" translate(-20.5, -12)" d="M 18.293 8.29298 C 18.6591 7.92686 19.2381 7.90427 19.6308 8.22462 L 19.707 8.29298 L 22.707 11.293 L 22.7754 11.3692 C 23.0744 11.7357 23.0744 12.2643 22.7754 12.6309 L 22.707 12.707 L 19.707 15.707 C 19.3165 16.0976 18.6835 16.0976 18.293 15.707 C 17.9024 15.3165 17.9024 14.6835 18.293 14.293 L 20.5859 12 L 18.293 9.70704 L 18.2246 9.63087 C 17.9042 9.2381 17.9268 8.65909 18.293 8.29298 Z" stroke-linecap="round" /></g><g transform="matrix(1 0 0 1 12 12)"  ><path style="stroke: none; stroke-width: 1; stroke-dasharray: none; stroke-linecap: butt; stroke-dashoffset: 0; stroke-linejoin: miter; stroke-miterlimit: 4; fill: rgb(236,150,121); fill-rule: nonzero; opacity: 1;"  transform=" translate(-12, -12)" d="M 22 11 C 22.5523 11 23 11.4477 23 12 C 23 12.5523 22.5523 13 22 13 L 2 13 C 1.44772 13 1 12.5523 1 12 C 1 11.4477 1.44772 11 2 11 L 22 11 Z" stroke-linecap="round" /></g><g transform="matrix(1 0 0 1 3.5 12)"  ><path style="stroke: none; stroke-width: 1; stroke-dasharray: none; stroke-linecap: butt; stroke-dashoffset: 0; stroke-linejoin: miter; stroke-miterlimit: 4; fill: rgb(236,150,121); fill-rule: nonzero; opacity: 1;"  transform=" translate(-3.5, -12)" d="M 4.29295 8.29302 C 4.68348 7.90249 5.31649 7.90249 5.70702 8.29302 C 6.09754 8.68354 6.09754 9.31655 5.70702 9.70708 L 3.41405 12 L 5.70702 14.293 L 5.77538 14.3692 C 6.09573 14.762 6.07313 15.341 5.70702 15.7071 C 5.3409 16.0732 4.7619 16.0958 4.36913 15.7754 L 4.29295 15.7071 L 1.29295 12.7071 C 0.90243 12.3166 0.90243 11.6835 1.29295 11.293 L 4.29295 8.29302 Z" stroke-linecap="round" /></g><g transform="matrix(1 0 0 1 12 3.5)"  ><path style="stroke: none; stroke-width: 1; stroke-dasharray: none; stroke-linecap: butt; stroke-dashoffset: 0; stroke-linejoin: miter; stroke-miterlimit: 4; fill: rgb(236,150,121); fill-rule: nonzero; opacity: 1;"  transform=" translate(-12, -3.5)" d="M 11.3691 1.22462 C 11.7619 0.904269 12.3409 0.926863 12.707 1.29298 L 15.707 4.29298 L 15.7754 4.36915 C 16.0957 4.76192 16.0731 5.34092 15.707 5.70704 C 15.3409 6.07316 14.7619 6.09575 14.3691 5.7754 L 14.293 5.70704 L 12 3.41407 L 9.70702 5.70704 C 9.31649 6.09757 8.68348 6.09757 8.29295 5.70704 C 7.90243 5.31652 7.90243 4.6835 8.29295 4.29298 L 11.293 1.29298 L 11.3691 1.22462 Z" stroke-linecap="round" /></g></g></g></svg>