<svg xmlns="http://www.w3.org/2000/svg" width="24" height="24"  viewBox="0 0 24 24"><g transform="matrix(1 0 0 1 0 0)"  ><g style=""   ><g transform="matrix(1 0 0 1 12 12)"  ><path style="stroke: none; stroke-width: 1; stroke-dasharray: none; stroke-linecap: butt; stroke-dashoffset: 0; stroke-linejoin: miter; stroke-miterlimit: 4; fill: rgb(236,150,121); fill-rule: nonzero; opacity: 1;"  transform=" translate(-12, -12)" d="M 15 12 C 15 10.3431 13.6569 9 12 9 C 10.3431 9 9 10.3431 9 12 C 9 13.6569 10.3431 15 12 15 C 13.6569 15 15 13.6569 15 12 Z M 17 12 C 17 14.7614 14.7614 17 12 17 C 9.23858 17 7 14.7614 7 12 C 7 9.23858 9.23858 7 12 7 C 14.7614 7 17 9.23858 17 12 Z" stroke-linecap="round" /></g><g transform="matrix(1 0 0 1 12 3)"  ><path style="stroke: none; stroke-width: 1; stroke-dasharray: none; stroke-linecap: butt; stroke-dashoffset: 0; stroke-linejoin: miter; stroke-miterlimit: 4; fill: rgb(236,150,121); fill-rule: nonzero; opacity: 1;"  transform=" translate(-12, -3)" d="M 11 4 L 11 2 C 11 1.44772 11.4477 1 12 1 C 12.5523 1 13 1.44772 13 2 L 13 4 C 13 4.55228 12.5523 5 12 5 C 11.4477 5 11 4.55228 11 4 Z" stroke-linecap="round" /></g><g transform="matrix(1 0 0 1 12 21)"  ><path style="stroke: none; stroke-width: 1; stroke-dasharray: none; stroke-linecap: butt; stroke-dashoffset: 0; stroke-linejoin: miter; stroke-miterlimit: 4; fill: rgb(236,150,121); fill-rule: nonzero; opacity: 1;"  transform=" translate(-12, -21)" d="M 11 22 L 11 20 C 11 19.4477 11.4477 19 12 19 C 12.5523 19 13 19.4477 13 20 L 13 22 C 13 22.5523 12.5523 23 12 23 C 11.4477 23 11 22.5523 11 22 Z" stroke-linecap="round" /></g><g transform="matrix(1 0 0 1 5.63 5.64)"  ><path style="stroke: none; stroke-width: 1; stroke-dasharray: none; stroke-linecap: butt; stroke-dashoffset: 0; stroke-linejoin: miter; stroke-miterlimit: 4; fill: rgb(236,150,121); fill-rule: nonzero; opacity: 1;"  transform=" translate(-5.63, -5.64)" d="M 4.22291 4.22297 C 4.58903 3.85686 5.16803 3.83426 5.5608 4.15461 L 5.63697 4.22297 L 7.04713 5.63313 L 7.11549 5.7093 C 7.43569 6.10207 7.41319 6.68113 7.04713 7.04719 C 6.68107 7.41325 6.10201 7.43575 5.70924 7.11555 L 5.63307 7.04719 L 4.22291 5.63703 L 4.15455 5.56086 C 3.8342 5.16809 3.85679 4.58909 4.22291 4.22297 Z" stroke-linecap="round" /></g><g transform="matrix(1 0 0 1 18.37 18.36)"  ><path style="stroke: none; stroke-width: 1; stroke-dasharray: none; stroke-linecap: butt; stroke-dashoffset: 0; stroke-linejoin: miter; stroke-miterlimit: 4; fill: rgb(236,150,121); fill-rule: nonzero; opacity: 1;"  transform=" translate(-18.37, -18.36)" d="M 16.953 16.953 C 17.3191 16.5868 17.8981 16.5642 18.2909 16.8846 L 18.3671 16.953 L 19.7772 18.3631 L 19.8456 18.4393 C 20.1658 18.8321 20.1433 19.4111 19.7772 19.7772 C 19.4112 20.1432 18.8321 20.1657 18.4393 19.8455 L 18.3632 19.7772 L 16.953 18.367 L 16.8847 18.2908 C 16.5643 17.8981 16.5869 17.3191 16.953 16.953 Z" stroke-linecap="round" /></g><g transform="matrix(1 0 0 1 3 12)"  ><path style="stroke: none; stroke-width: 1; stroke-dasharray: none; stroke-linecap: butt; stroke-dashoffset: 0; stroke-linejoin: miter; stroke-miterlimit: 4; fill: rgb(236,150,121); fill-rule: nonzero; opacity: 1;"  transform=" translate(-3, -12)" d="M 4 11 C 4.55228 11 5 11.4477 5 12 C 5 12.5523 4.55228 13 4 13 L 2 13 C 1.44772 13 1 12.5523 1 12 C 1 11.4477 1.44772 11 2 11 L 4 11 Z" stroke-linecap="round" /></g><g transform="matrix(1 0 0 1 21 12)"  ><path style="stroke: none; stroke-width: 1; stroke-dasharray: none; stroke-linecap: butt; stroke-dashoffset: 0; stroke-linejoin: miter; stroke-miterlimit: 4; fill: rgb(236,150,121); fill-rule: nonzero; opacity: 1;"  transform=" translate(-21, -12)" d="M 22 11 C 22.5523 11 23 11.4477 23 12 C 23 12.5523 22.5523 13 22 13 L 20 13 C 19.4477 13 19 12.5523 19 12 C 19 11.4477 19.4477 11 20 11 L 22 11 Z" stroke-linecap="round" /></g><g transform="matrix(1 0 0 1 5.63 18.37)"  ><path style="stroke: none; stroke-width: 1; stroke-dasharray: none; stroke-linecap: butt; stroke-dashoffset: 0; stroke-linejoin: miter; stroke-miterlimit: 4; fill: rgb(236,150,121); fill-rule: nonzero; opacity: 1;"  transform=" translate(-5.63, -18.37)" d="M 5.70924 16.8846 C 6.10201 16.5643 6.68104 16.5869 7.04713 16.953 C 7.41314 17.3191 7.43575 17.8981 7.11549 18.2909 L 7.04713 18.367 L 5.63697 19.7772 C 5.24647 20.1676 4.61341 20.1676 4.22291 19.7772 C 3.83241 19.3867 3.83246 18.7537 4.22291 18.3631 L 5.63306 16.953 L 5.70924 16.8846 Z" stroke-linecap="round" /></g><g transform="matrix(1 0 0 1 18.37 5.64)"  ><path style="stroke: none; stroke-width: 1; stroke-dasharray: none; stroke-linecap: butt; stroke-dashoffset: 0; stroke-linejoin: miter; stroke-miterlimit: 4; fill: rgb(236,150,121); fill-rule: nonzero; opacity: 1;"  transform=" translate(-18.37, -5.64)" d="M 18.4393 4.15463 C 18.8321 3.83436 19.4111 3.8569 19.7772 4.22299 C 20.1432 4.58909 20.1659 5.16814 19.8456 5.56088 L 19.7772 5.63705 L 18.3671 7.04721 C 17.9766 7.43763 17.3435 7.43763 16.953 7.04721 C 16.5625 6.65671 16.5626 6.02368 16.953 5.63315 L 18.3632 4.22299 L 18.4393 4.15463 Z" stroke-linecap="round" /></g></g></g></svg>