<svg xmlns="http://www.w3.org/2000/svg" width="20" height="20"  viewBox="0 0 20 20"><g transform="matrix(1 0 0 1 0 0)"  ><g style=""   ><g transform="matrix(0.83 0 0 0.83 10.83 10)"  ><path style="stroke: none; stroke-width: 1; stroke-dasharray: none; stroke-linecap: butt; stroke-dashoffset: 0; stroke-linejoin: miter; stroke-miterlimit: 4; fill: rgb(29,26,22); fill-rule: nonzero; opacity: 1;"  transform=" translate(-13, -12)" d="M 5.52051 2.12207 C 5.84158 1.94678 6.23331 1.96137 6.54102 2.15918 L 20.541 11.1592 C 20.827 11.3432 21 11.6599 21 12 C 21 12.3401 20.827 12.6568 20.541 12.8408 L 6.54102 21.8408 C 6.23331 22.0386 5.84158 22.0532 5.52051 21.8779 C 5.19952 21.7026 5 21.3658 5 21 L 5 3 L 5.00879 2.86426 C 5.05144 2.55248 5.23969 2.27544 5.52051 2.12207 Z M 7 19.168 L 18.1504 12 L 7 4.83105 L 7 19.168 Z" stroke-linecap="round" /></g></g></g></svg>